<svg width="119" height="24" viewBox="0 0 119 24" fill="none" xmlns="http://www.w3.org/2000/svg">
<path fill-rule="evenodd" clip-rule="evenodd" d="M11.9582 24C5.38241 24 0 18.6176 0 11.9462C0 5.38241 5.38241 0 11.9582 0C18.6176 0 24 5.38241 24 11.9462C24 18.6176 18.6176 24 11.9582 24ZM11.9582 18.9756C15.8727 18.9756 18.9756 15.8727 18.9756 11.9462C18.9756 8.11534 15.8727 5.01242 11.9582 5.01242C8.11534 5.01242 5.01242 8.11534 5.01242 11.9462C5.01242 15.8727 8.11534 18.9756 11.9582 18.9756" fill="white"/>
<path fill-rule="evenodd" clip-rule="evenodd" d="M85.9582 24C79.3824 24 74 18.6176 74 11.9462C74 5.38241 79.3824 0 85.9582 0C92.6176 0 98 5.38241 98 11.9462C98 18.6176 92.6176 24 85.9582 24ZM85.9582 18.9756C89.8727 18.9756 92.9756 15.8727 92.9756 11.9462C92.9756 8.11534 89.8727 5.01242 85.9582 5.01242C82.1153 5.01242 79.0124 8.11534 79.0124 11.9462C79.0124 15.8727 82.1153 18.9756 85.9582 18.9756" fill="white"/>
<path fill-rule="evenodd" clip-rule="evenodd" d="M25 1.19167V24H30.1852V5.40833H35.9506V24H41.1358V5.40833H43.1234C45.1976 5.40833 46.8025 6.96558 46.8025 8.88231V24H52V9.062C52 4.5818 48.321 1 43.6914 1H30.2839C28.4938 1 26.6913 1 25 1.19167" fill="white"/>
<path fill-rule="evenodd" clip-rule="evenodd" d="M100 1.19167V24H104.947V5.40833H110.542C112.427 5.40833 114.053 6.96558 114.053 8.88231V24H119V9.062C119 4.5818 115.49 1 111.072 1H104.947C103.334 1 101.614 1 100 1.19167" fill="white"/>
<path fill-rule="evenodd" clip-rule="evenodd" d="M54 1.19167V24H59.1042V5.40833H65.1441C67.1979 5.40833 68.7778 6.96558 68.7778 8.88231C68.7778 10.8948 67.1979 12.452 65.1441 12.452H60.7813L68.6806 24H75L69.2396 15.6625C72.0226 14.6562 73.8819 11.9969 73.8819 8.88231C73.8819 4.5818 70.3576 1 65.8855 1H59.1042C57.342 1 55.665 1 54 1.19167" fill="white"/>
</svg>
